<svg version="1.1" id="Layer_1" xmlns="http://www.w3.org/2000/svg" xmlns:xlink="http://www.w3.org/1999/xlink" x="0px" y="0px"
	 width="100%" viewBox="0 0 464 464" enable-background="new 0 0 464 464" xml:space="preserve">
<path fill="transparent" opacity="1.000000" stroke="none" 
	d="
M254.000000,465.000000 
	C170.688980,465.000000 87.877922,464.976837 5.067047,465.085632 
	C1.790943,465.089935 0.894415,464.630615 0.897217,461.069000 
	C1.016732,309.110046 1.018683,157.150955 0.891270,5.192006 
	C0.888115,1.429787 1.855279,0.913526 5.305851,0.915744 
	C157.098221,1.013317 308.890656,1.012805 460.683044,0.918288 
	C464.103668,0.916158 465.114227,1.388015 465.110992,5.180911 
	C464.980804,157.139862 464.983551,309.098938 465.101532,461.057892 
	C465.104279,464.596863 464.244110,465.093384 460.944000,465.087799 
	C392.129486,464.971436 323.314728,465.000000 254.000000,465.000000 
z"/>
<path fill="#FFFFFF" opacity="1.000000" stroke="none" 
	d="
M197.745575,238.443039 
	C203.752411,223.415237 207.993790,208.172272 212.922043,193.159271 
	C219.570526,172.905853 225.902985,152.548523 232.341934,132.226547 
	C238.394455,113.124176 244.504181,94.043587 250.869171,75.039528 
	C255.405258,61.496059 269.069702,53.613003 282.917755,55.155464 
	C295.630890,56.571514 306.576111,66.584740 309.110718,80.173706 
	C311.010529,90.359489 306.772064,99.132317 303.938934,108.211731 
	C297.165894,129.917175 290.012604,151.503952 283.034607,173.525650 
	C282.396454,181.179092 278.794281,187.616928 277.093323,194.994171 
	C272.068787,210.304199 267.388733,225.315765 262.269348,240.556366 
	C257.143585,252.655762 254.019745,265.043274 250.055542,277.152710 
	C243.126190,298.319641 236.411636,319.557129 229.656311,340.780731 
	C223.289581,360.783569 217.264450,380.900635 210.539215,400.781494 
	C207.114517,410.905396 199.580887,416.852509 188.828186,419.095245 
	C174.365631,422.111786 163.886230,416.520264 156.386887,404.746094 
	C151.271301,396.714478 150.890793,387.739594 153.764709,378.670868 
	C159.621704,360.188904 165.497040,341.712738 171.339935,323.226257 
	C173.265518,317.133850 175.114548,311.017212 176.990479,304.514282 
	C179.387207,292.920471 184.150833,282.447845 187.031357,271.394623 
	C187.614594,269.156555 188.412689,266.971405 189.056549,264.337433 
	C192.581863,255.761703 194.403305,247.037827 197.745575,238.443039 
z"/>
<path fill="#F8709A" opacity="1.000000" stroke="none" 
	d="
M147.845795,87.442169 
	C156.846161,77.821388 165.258255,68.121262 175.380829,60.200569 
	C177.111008,58.846745 179.295715,58.073803 181.634949,57.099869 
	C184.072128,59.362087 183.565201,62.137280 183.572006,64.728607 
	C183.627304,85.781288 183.660706,106.834503 183.544571,127.886635 
	C183.523712,131.664490 184.789047,135.462219 183.256348,139.670258 
	C172.251053,151.023224 161.459305,161.933334 150.357132,172.975769 
	C147.854660,172.111282 147.536606,170.067978 147.525970,168.076904 
	C147.385040,141.684967 147.229782,115.292648 147.590622,88.901093 
	C147.595062,88.576157 147.727707,88.253120 147.845795,87.442169 
z"/>
<path fill="#818EF8" opacity="1.000000" stroke="none" 
	d="
M388.736389,279.931488 
	C400.688873,291.509735 399.320770,313.001526 387.819122,323.816833 
	C377.146729,333.852325 367.028381,344.477020 356.356201,354.975983 
	C353.850037,354.107483 353.534698,352.057465 353.528259,350.062927 
	C353.423553,317.615723 353.160431,285.168091 353.647491,252.721649 
	C353.654968,252.223541 353.830688,251.742004 354.099152,250.853439 
	C356.680420,246.887970 358.456055,249.558823 360.117279,251.195282 
	C369.297974,260.239044 378.326813,269.435883 387.785187,278.724396 
	C388.062897,278.968536 388.007965,279.000305 388.014862,278.969330 
	C388.217041,279.202240 388.422241,279.458160 388.736389,279.931488 
z"/>
<path fill="#F97094" opacity="1.000000" stroke="none" 
	d="
M183.353088,139.979614 
	C180.714355,112.794853 182.620117,85.422760 181.999695,57.625008 
	C192.003143,53.603382 201.406845,55.230373 210.193024,60.757584 
	C219.745071,66.766586 223.517303,76.387375 223.728348,86.865982 
	C223.896027,95.191620 220.462311,103.009216 214.322327,109.169731 
	C204.116867,119.409355 193.884430,129.622070 183.353088,139.979614 
z"/>
<path fill="#F471B5" opacity="1.000000" stroke="none" 
	d="
M68.325531,188.346939 
	C64.935188,177.238647 67.772018,167.610443 75.008163,159.700378 
	C84.366966,149.469971 94.523415,139.969254 104.649048,130.018188 
	C107.389771,131.498047 107.504395,134.068710 107.514702,136.549637 
	C107.632072,164.784409 107.623177,193.019409 107.529205,221.254303 
	C107.523102,223.087936 107.304787,224.904556 106.218781,226.943100 
	C103.138268,229.930969 100.903404,227.997131 99.180885,225.995621 
	C91.666710,217.264481 83.070610,209.604279 75.102562,201.326294 
	C71.655998,197.745682 69.464935,193.540695 68.325531,188.346939 
z"/>
<path fill="#7993F8" opacity="1.000000" stroke="none" 
	d="
M356.116669,248.636627 
	C355.014374,250.633362 354.986389,252.440491 354.987427,254.287521 
	C355.004913,286.014404 354.998383,317.741302 355.004730,349.468170 
	C355.005066,351.116974 354.791443,352.807007 355.878662,354.718140 
	C350.583771,360.689484 345.121216,366.269226 339.348633,371.983978 
	C336.837585,369.767395 337.448975,366.810547 337.442688,364.060089 
	C337.386658,339.490875 337.404602,314.921509 337.419556,290.352173 
	C337.421661,286.858582 337.344666,283.380585 336.510376,279.510620 
	C335.661133,276.448578 336.867950,274.165436 337.752655,271.865662 
	C342.256042,260.159271 343.268005,248.330704 339.160339,235.885498 
	C339.199982,235.221603 339.250153,234.961777 339.481384,234.355255 
	C340.741425,233.163269 341.949768,233.265778 342.806976,234.115067 
	C347.429596,238.695084 352.708618,242.660889 356.116669,248.636627 
z"/>
<path fill="#51AFF8" opacity="1.000000" stroke="none" 
	d="
M356.298340,249.140442 
	C351.253998,243.647797 346.501251,238.310150 340.346863,234.022766 
	C340.796448,239.021561 343.010834,243.623703 343.163910,248.918671 
	C343.454315,258.965179 340.930023,268.208221 337.047058,277.633850 
	C334.345123,286.346893 330.173798,293.792450 323.584045,300.161652 
	C323.015045,300.367188 322.772003,300.402588 322.213837,300.247131 
	C320.990234,299.265808 320.081787,298.475311 319.065369,297.399597 
	C317.658356,294.878174 317.383270,292.437958 317.384430,289.900360 
	C317.395233,265.949921 317.366272,241.999496 317.416901,218.049118 
	C317.422516,215.401688 317.321808,212.679886 319.635223,210.173645 
	C341.334656,231.061615 362.642700,252.229523 383.900238,273.448029 
	C385.381958,274.927063 387.390564,276.022552 388.033173,278.616791 
	C385.694244,279.083466 384.683838,277.107513 383.327576,275.773254 
	C374.385986,266.976776 365.499908,258.123932 356.298340,249.140442 
z"/>
<path fill="#F671AA" opacity="1.000000" stroke="none" 
	d="
M115.832428,119.350739 
	C120.729408,113.995522 125.506203,109.099777 130.590118,104.076126 
	C134.181259,104.947479 133.496307,107.806137 133.525940,110.080322 
	C133.679871,121.893753 133.602783,133.709381 133.591354,145.524200 
	C133.576721,160.666504 133.664429,175.808914 133.602203,191.393311 
	C134.284485,194.356705 132.936768,196.333023 131.859146,198.388763 
	C128.448273,204.895599 125.814636,211.688278 123.935059,218.806656 
	C122.063377,225.895142 121.956902,232.927399 123.877182,240.407837 
	C124.308960,243.268356 126.472710,246.346146 123.661461,248.000366 
	C120.701721,249.741959 119.068245,246.235291 117.468399,244.515060 
	C115.630508,242.538895 112.306503,241.227310 113.314705,237.167572 
	C115.704628,234.661179 115.405945,231.903915 115.407166,229.266464 
	C115.423210,194.605179 115.445541,159.943893 115.401909,125.282623 
	C115.399605,123.450546 115.273415,121.615532 115.832428,119.350739 
z"/>
<path fill="#F770A3" opacity="1.000000" stroke="none" 
	d="
M112.934692,237.662354 
	C115.379333,240.543594 117.712372,243.132614 120.159103,245.609344 
	C121.022179,246.483017 121.877327,248.245407 123.322105,247.354721 
	C124.631409,246.547562 123.829185,244.974808 123.398499,243.714539 
	C123.186897,243.095291 123.136391,242.421005 123.006645,241.385498 
	C128.477402,239.904572 132.965683,236.893494 137.402130,233.710388 
	C146.744278,227.007477 155.134384,219.354004 161.843185,209.945969 
	C162.782318,208.628983 163.618744,207.093124 165.774963,206.831924 
	C171.973145,211.460938 176.706512,217.147766 182.057175,222.597168 
	C181.452316,225.503510 179.352921,227.072708 177.753342,228.884872 
	C165.639755,242.608536 152.558975,255.186478 135.309570,263.074860 
	C131.242874,260.810760 128.780670,257.189148 125.664619,254.257797 
	C117.866570,246.921921 110.161148,239.480209 102.614998,231.885788 
	C92.839233,222.047516 83.118996,212.145874 73.659882,202.005630 
	C70.330376,198.436401 68.390564,193.853165 68.106255,188.404449 
	C72.010681,198.600525 80.766022,205.243286 88.366516,212.726044 
	C93.408440,217.689850 97.592117,223.516129 103.684364,227.868546 
	C107.343674,230.740540 110.210922,233.933136 112.934692,237.662354 
z"/>
<path fill="#F770A3" opacity="1.000000" stroke="none" 
	d="
M133.342407,193.093155 
	C131.271896,191.352371 132.039444,189.225418 132.035538,187.321854 
	C131.982635,161.523132 132.009018,135.724258 131.980545,109.925476 
	C131.978561,108.122437 132.378586,106.260056 131.211426,104.233505 
	C136.357315,98.368881 141.817383,92.789543 147.583679,87.082550 
	C149.755371,88.533104 148.959930,90.683151 148.964081,92.575607 
	C149.018219,117.203552 148.992630,141.831650 149.013977,166.459702 
	C149.015686,168.430679 148.635696,170.471725 149.878693,172.716751 
	C147.434860,175.838684 144.823029,178.569275 142.157532,181.627213 
	C139.613480,185.934494 137.338165,190.075577 133.342407,193.093155 
z"/>
<path fill="#5AA9F8" opacity="1.000000" stroke="none" 
	d="
M283.257080,423.412720 
	C275.958069,427.100006 268.860352,426.990326 261.358917,424.013489 
	C260.160950,422.885590 260.102997,421.740021 260.129059,420.552734 
	C260.530396,402.254852 260.804260,383.957153 259.974487,365.662781 
	C259.928253,364.643250 260.156281,363.682312 260.746826,362.316406 
	C267.752167,354.973633 274.546814,348.062317 281.651550,341.015991 
	C283.338928,342.108063 283.513611,343.792572 283.520172,345.445160 
	C283.623169,371.294098 283.689880,397.143158 283.257080,423.412720 
z"/>
<path fill="#F8709A" opacity="1.000000" stroke="none" 
	d="
M132.959991,193.354401 
	C136.249634,189.750504 137.602585,185.002899 141.791412,182.099884 
	C149.599869,189.387283 157.104568,196.811310 164.573959,204.270676 
	C165.120392,204.816406 165.411377,205.617966 165.964722,206.625412 
	C162.994232,210.570435 159.749191,214.087189 156.791595,217.831009 
	C149.151352,227.502319 139.166763,234.240891 128.844070,240.594101 
	C127.178070,241.619461 125.520309,242.016052 123.352493,241.033646 
	C118.769119,229.871017 121.897606,219.319580 125.621559,208.857666 
	C127.507065,203.560593 130.036499,198.540314 132.959991,193.354401 
z"/>
<path fill="#57ABF8" opacity="1.000000" stroke="none" 
	d="
M319.912354,209.575439 
	C319.194000,212.601212 318.962891,215.371521 318.968201,218.226776 
	C319.016693,244.205200 318.988617,270.183777 318.970215,296.638306 
	C313.357758,291.632019 307.758087,286.149689 302.024750,280.357544 
	C301.661377,278.240814 301.372559,276.451050 301.376465,274.609222 
	C301.427826,250.370911 301.375122,226.132507 301.430969,201.894226 
	C301.437012,199.280365 301.092285,196.517303 303.612000,194.121490 
	C309.290985,199.013977 314.538483,204.141663 319.912354,209.575439 
z"/>
<path fill="#60A5F8" opacity="1.000000" stroke="none" 
	d="
M283.363281,423.901733 
	C282.230560,421.452881 281.963165,419.032654 281.967987,416.513702 
	C282.015717,391.620422 281.989685,366.727051 281.973022,341.357300 
	C287.088165,335.637634 292.214722,330.394318 297.651367,325.016022 
	C299.603668,326.419128 299.551788,328.480957 299.563904,330.456024 
	C299.725983,356.886932 299.432068,383.318878 299.732483,409.749664 
	C299.738190,410.251282 299.561005,410.730011 299.248138,411.665283 
	C294.856415,417.252686 290.085236,421.635834 283.363281,423.901733 
z"/>
<path fill="#7298F8" opacity="1.000000" stroke="none" 
	d="
M322.872192,300.487366 
	C328.712463,293.571472 332.480499,285.923523 336.731567,278.203369 
	C339.056854,280.499084 339.010071,283.473999 339.009003,286.467560 
	C338.999023,314.700470 339.010345,342.933350 339.027069,371.642639 
	C334.581207,376.693481 330.123810,381.267975 325.356506,385.976135 
	C323.060150,385.234375 322.585724,383.417847 322.575226,381.575623 
	C322.421722,354.702393 322.072205,327.828217 322.872192,300.487366 
z"/>
<path fill="#F571B0" opacity="1.000000" stroke="none" 
	d="
M113.424088,237.996643 
	C109.613052,235.318344 106.348862,232.522141 104.131516,228.314865 
	C106.046829,226.322357 106.010033,223.999084 106.008881,221.647156 
	C105.995064,193.284561 105.990181,164.921951 106.020554,136.559387 
	C106.022713,134.541641 105.846146,132.599030 105.020065,130.305023 
	C108.418739,126.307312 111.875801,122.732605 115.642746,119.024582 
	C116.914032,120.531532 117.016724,122.320801 117.015648,124.176086 
	C116.994469,160.536224 117.004410,196.896362 116.988892,233.256500 
	C116.987946,235.478378 117.681572,238.267868 113.424088,237.996643 
z"/>
<path fill="#60A5F8" opacity="1.000000" stroke="none" 
	d="
M303.916687,193.579926 
	C302.837891,195.843430 302.993164,198.020798 302.993866,200.184326 
	C303.001770,224.814789 303.008301,249.445267 302.979187,274.075684 
	C302.977081,275.878174 303.380280,277.740631 302.206787,279.764221 
	C297.328766,275.604797 292.766449,271.161835 288.076477,266.411804 
	C287.506195,264.495026 287.336731,262.861176 287.344543,261.186890 
	C287.459259,236.637711 287.346588,212.088272 287.426880,187.539124 
	C287.435364,184.946106 286.957520,182.162033 289.612976,179.984039 
	C294.666962,184.390762 299.228424,188.832153 303.916687,193.579926 
z"/>
<path fill="#F671AA" opacity="1.000000" stroke="none" 
	d="
M135.086731,263.423279 
	C141.215530,257.932922 148.838943,254.797562 155.060791,249.511475 
	C163.299622,242.511765 171.048981,235.065948 177.901611,226.692169 
	C178.944717,225.417511 180.283508,224.384827 181.796326,223.094849 
	C186.395523,224.517227 188.166580,228.933594 191.605713,231.544571 
	C192.690704,232.368301 194.976105,232.998810 195.022430,235.532288 
	C195.770020,237.763382 194.677917,239.104614 193.642044,240.396027 
	C181.967056,254.951019 168.163742,267.054810 152.009735,276.438263 
	C151.010727,277.018555 150.030289,277.710663 148.463440,277.208862 
	C143.030914,273.378204 139.456863,268.233124 135.086731,263.423279 
z"/>
<path fill="#66A0F8" opacity="1.000000" stroke="none" 
	d="
M299.352875,411.980042 
	C298.187775,409.396210 297.963226,406.624939 297.968536,403.769836 
	C298.016968,377.791229 297.989624,351.812469 297.972961,325.357422 
	C302.085541,320.639893 306.209595,316.398743 310.643555,312.023926 
	C313.144867,312.887665 313.463409,314.930786 313.474060,316.921997 
	C313.615143,343.314514 313.770508,369.707428 313.409271,396.099579 
	C313.404816,396.424561 313.272308,396.747620 313.154419,397.558594 
	C308.627930,402.645874 304.145416,407.245880 299.352875,411.980042 
z"/>
<path fill="#6C9CF8" opacity="1.000000" stroke="none" 
	d="
M313.416992,397.918762 
	C311.244598,396.467834 312.040009,394.317719 312.035858,392.425171 
	C311.981781,367.796631 312.007355,343.167908 311.986084,318.539246 
	C311.984375,316.568146 312.363464,314.527130 311.121155,312.281860 
	C314.562897,308.162720 318.172363,304.435181 321.840271,300.381958 
	C322.084229,300.047058 322.269775,300.037811 322.734070,300.023376 
	C324.234924,301.974182 324.000153,304.158691 324.000122,306.306671 
	C323.999939,330.697235 323.992676,355.087799 324.013763,379.478363 
	C324.015472,381.443787 323.639008,383.478790 324.878906,385.718231 
	C321.272278,390.003754 317.497925,393.897705 313.416992,397.918762 
z"/>
<path fill="#66A0F8" opacity="1.000000" stroke="none" 
	d="
M289.972168,179.639252 
	C288.248413,181.531204 289.038513,183.679672 289.034363,185.573441 
	C288.980713,210.201584 289.006165,234.829895 288.984711,259.458160 
	C288.982971,261.428986 289.364441,263.470245 288.118042,265.714111 
	C284.367371,262.642883 280.785950,259.181030 277.076904,255.412201 
	C276.285706,253.004990 276.439056,250.844437 276.422974,248.686279 
	C276.291809,231.101059 276.820831,213.512390 276.077576,195.465897 
	C277.623688,187.958023 279.974335,181.143677 282.771790,174.146515 
	C285.904633,174.982513 287.758484,177.297653 289.972168,179.639252 
z"/>
<path fill="#57ABF8" opacity="1.000000" stroke="none" 
	d="
M260.647522,362.019287 
	C263.186310,380.440765 261.483887,399.069763 261.949310,417.658966 
	C261.993713,419.433533 261.349304,421.225311 261.012634,423.421387 
	C250.333115,421.164764 241.769943,408.893005 240.956528,398.317719 
	C240.072708,386.826965 244.306427,377.601624 252.563782,369.904633 
	C255.238953,367.411011 257.750885,364.742249 260.647522,362.019287 
z"/>
<path fill="#F571B0" opacity="1.000000" stroke="none" 
	d="
M148.197159,277.353607 
	C166.791550,267.068542 182.381073,253.640015 194.912323,236.211670 
	C195.844345,236.569061 196.639465,237.246231 197.727829,238.042877 
	C197.294403,247.097534 193.250824,255.099670 190.685837,263.866302 
	C181.711670,271.699402 173.064499,279.416931 163.082779,285.411072 
	C161.675507,286.256134 160.376938,287.382263 158.233032,287.167175 
	C154.670227,283.933502 151.449402,280.820312 148.197159,277.353607 
z"/>
<path fill="#6C9CF8" opacity="1.000000" stroke="none" 
	d="
M275.756683,195.271164 
	C277.574615,195.730270 278.008942,197.040558 278.005585,198.668030 
	C277.968658,216.596878 277.960846,234.525803 277.906799,252.454590 
	C277.904907,253.078262 277.503082,253.700745 277.118469,254.714478 
	C272.170197,250.441635 267.391144,245.778061 262.300995,240.975616 
	C262.278259,233.542999 265.684448,227.091537 267.642090,220.255386 
	C270.021301,211.947311 272.867096,203.772873 275.756683,195.271164 
z"/>
<path fill="#F471B5" opacity="1.000000" stroke="none" 
	d="
M158.027206,287.360718 
	C168.176468,281.674164 176.876175,274.124054 185.720169,266.773285 
	C186.960571,265.742310 187.811371,264.139069 190.106934,264.134521 
	C186.563461,277.481110 182.626602,290.799438 177.311813,303.947205 
	C169.496506,300.024384 164.476608,293.109436 158.027206,287.360718 
z"/>
<path fill="#51AFF8" opacity="1.000000" stroke="none" 
	d="
M388.884155,279.866638 
	C388.596863,279.917877 388.358276,279.678955 388.070740,279.189178 
	C388.325439,279.151062 388.629150,279.363770 388.884155,279.866638 
z"/>
<path fill="#7993F8" opacity="1.000000" stroke="none" 
	d="
M339.992950,234.004593 
	C339.541321,233.646561 338.708069,233.386566 339.622894,232.659348 
	C339.750427,232.937149 339.877930,233.214966 340.011780,233.737427 
	C340.018127,233.982071 340.001770,233.998276 339.992950,234.004593 
z"/>
</svg>